<svg width="221" height="217" viewBox="0 0 221 217" fill="none" xmlns="http://www.w3.org/2000/svg">
<circle cx="112.667" cy="108.33" r="108" fill="#4D7CDB"/>
<path d="M41.6936 13.274C44.4948 10.0543 49.3447 9.63639 52.6554 12.3294L55.9916 15.0431C57.8848 16.5831 60.3827 17.1632 62.7608 16.6152L66.9515 15.6496C71.1102 14.6913 75.2794 17.2039 76.375 21.3285L77.4789 25.485C78.1054 27.8436 79.7852 29.7812 82.0312 30.7357L85.9892 32.4177C89.9169 34.0869 91.813 38.5702 90.2749 42.551L88.7249 46.5625C87.8454 48.8389 88.0655 51.3939 89.3216 53.4862L91.535 57.1735C93.7314 60.8325 92.6302 65.5741 89.046 67.8906L85.4341 70.2249C83.3845 71.5496 82.0608 73.7459 81.8471 76.177L81.4705 80.461C81.0968 84.7123 77.4188 87.901 73.1575 87.6683L68.8634 87.4339C66.4266 87.3008 64.0647 88.2997 62.4629 90.1408L59.6401 93.3853C56.8389 96.6049 51.9891 97.0229 48.6784 94.3299L45.3422 91.6161C43.449 90.0762 40.9511 89.4961 38.573 90.044L34.3822 91.0097C30.2236 91.9679 26.0543 89.4554 24.9588 85.3307L23.8548 81.1743C23.2284 78.8156 21.5485 76.8781 19.3025 75.9236L15.3445 74.2416C11.4169 72.5724 9.52071 68.0891 11.0588 64.1082L12.6088 60.0967C13.4884 57.8203 13.2682 55.2654 12.0122 53.173L9.79879 49.4858C7.60233 45.8268 8.70356 41.0851 12.2878 38.7687L15.8996 36.4343C17.9493 35.1097 19.2729 32.9133 19.4866 30.4823L19.8632 26.1982C20.237 21.947 23.915 18.7582 28.1763 18.9909L32.4704 19.2254C34.9072 19.3585 37.269 18.3596 38.8709 16.5184L41.6936 13.274Z" fill="#0E3789"/>
<path d="M37.265 45.6523L37.5798 49.3046C37.613 49.6906 37.5913 49.9617 37.5145 50.1179C37.4378 50.2741 37.285 50.3621 37.0562 50.3818C36.9567 50.3904 36.8272 50.3417 36.6677 50.2358C35.4818 49.5004 34.2521 49.1875 32.9786 49.2973C31.347 49.4379 30.0421 50.1137 29.064 51.3248C28.2041 52.396 27.8437 53.7383 27.9827 55.3516C28.1328 57.0937 28.8479 58.4131 30.1279 59.3099C31.2593 60.1098 32.5562 60.4468 34.0187 60.3207C35.4414 60.1981 36.6244 59.6774 37.5675 58.7585C37.6784 58.6493 37.7985 58.5891 37.9278 58.5779C38.1069 58.5625 38.2323 58.6215 38.3039 58.7549C38.3755 58.8883 38.4284 59.153 38.4625 59.5489L38.7773 63.2012C38.8046 63.518 38.808 63.7321 38.7875 63.8435C38.7662 63.9451 38.7038 64.0352 38.6003 64.1139C38.5449 64.1685 38.4447 64.227 38.2997 64.2894C37.2443 64.7194 36.4621 65.0061 35.9533 65.1497C35.4544 65.2924 34.8866 65.3912 34.2499 65.446C32.3397 65.6106 30.4835 65.297 28.6813 64.505C26.7645 63.663 25.2673 62.4559 24.1896 60.8835C23.1927 59.4339 22.6128 57.7638 22.4499 55.8733C22.2682 53.765 22.6318 51.8192 23.5405 50.0358C24.3972 48.3466 25.6669 46.9708 27.3494 45.9085C28.8886 44.9283 30.5487 44.3614 32.3296 44.208C33.7523 44.0854 35.2043 44.2444 36.6856 44.6852C36.9212 44.7446 37.0686 44.8267 37.1277 44.9313C37.1869 45.0358 37.2326 45.2762 37.265 45.6523Z" fill="white"/>
<path d="M48.4916 56.8749L48.9854 62.6058C49.0238 63.0512 48.9884 63.3384 48.8793 63.4675C48.7792 63.5858 48.5053 63.6642 48.0576 63.7028L44.7894 63.9844C44.3416 64.023 44.0534 63.993 43.9246 63.8944C43.805 63.7851 43.7259 63.5077 43.6876 63.0623L42.1152 44.8156C42.0768 44.3702 42.1077 44.0883 42.2077 43.97C42.3169 43.8409 42.5953 43.7571 43.043 43.7185L50.46 43.0794C51.644 42.9774 52.6301 43.022 53.4183 43.2134C54.2165 43.4038 54.9704 43.7776 55.6799 44.3347C57.1205 45.467 57.9317 47.0872 58.1134 49.1954C58.2899 51.2443 57.8839 52.9296 56.8952 54.2512C55.8893 55.6042 54.1924 56.3836 51.8046 56.5894L48.4916 56.8749ZM48.127 52.6436L49.8879 52.4918C50.9127 52.4035 51.6174 52.1483 52.002 51.7263C52.4602 51.2281 52.6535 50.5634 52.5818 49.7319C52.4351 48.0295 51.3967 47.2614 49.4666 47.4278L47.6907 47.5808L48.127 52.6436Z" fill="white"/>
<path d="M63.0249 61.396L61.4526 43.1492C61.4142 42.7038 61.445 42.422 61.5451 42.3037C61.6542 42.1746 61.9327 42.0908 62.3804 42.0522L69.1855 41.4658C71.7325 41.2463 74.0432 41.9496 76.1178 43.5757C77.2992 44.4909 78.2422 45.6062 78.9469 46.9216C79.6041 48.1512 79.989 49.4193 80.1016 50.7258C80.2671 52.646 79.876 54.5045 78.9283 56.3012C77.9797 58.0881 76.6558 59.4735 74.9565 60.4575C73.6961 61.1844 72.3546 61.6091 70.9319 61.7317L64.1267 62.3181C63.679 62.3567 63.3908 62.3267 63.262 62.2281C63.1423 62.1187 63.0633 61.8414 63.0249 61.396ZM68.026 57.495L69.2348 57.3908C70.2297 57.3051 71.0589 57.099 71.7223 56.7726C72.3858 56.4462 72.9556 55.9634 73.4317 55.324C74.322 54.1405 74.6997 52.7668 74.565 51.2029C74.4311 49.649 73.8243 48.3651 72.7447 47.3513C72.1662 46.8029 71.5222 46.4246 70.8127 46.2165C70.1032 46.0084 69.251 45.9473 68.2561 46.033L67.0472 46.1372L68.026 57.495Z" fill="white"/>
<path d="M174.693 33.5025C177.362 32.0199 180.725 32.9209 182.295 35.5389L183.878 38.1771C184.776 39.6742 186.314 40.6731 188.047 40.8842L191.101 41.2561C194.131 41.6252 196.323 44.3312 196.054 47.3721L195.784 50.4365C195.63 52.1754 196.288 53.8879 197.565 55.0773L199.817 57.1731C202.052 59.2529 202.235 62.7303 200.23 65.0326L198.21 67.3527C197.063 68.6693 196.589 70.4412 196.924 72.1545L197.513 75.1737C198.099 78.1698 196.203 81.0903 193.228 81.7747L190.23 82.4643C188.528 82.8556 187.103 84.0101 186.367 85.593L185.069 88.3823C183.782 91.1503 180.531 92.3985 177.722 91.2034L174.891 89.9991C173.285 89.3157 171.453 89.4119 169.927 90.2597L167.238 91.7537C164.569 93.2363 161.205 92.3353 159.635 89.7173L158.053 87.0792C157.155 85.5821 155.617 84.5831 153.884 84.372L150.83 84.0001C147.8 83.631 145.608 80.9251 145.876 77.8841L146.147 74.8197C146.301 73.0808 145.643 71.3683 144.365 70.179L142.113 68.0831C139.879 66.0033 139.696 62.526 141.701 60.2236L143.721 57.9035C144.867 56.587 145.342 54.815 145.007 53.1017L144.417 50.0825C143.832 47.0864 145.728 44.1659 148.703 43.4816L151.701 42.792C153.402 42.4006 154.828 41.2461 155.564 39.6632L156.862 36.8739C158.149 34.1059 161.4 32.8578 164.209 34.0528L167.04 35.2571C168.646 35.9405 170.478 35.8444 172.004 34.9966L174.693 33.5025Z" fill="#0E3789"/>
<path d="M163.823 54.1986L163.145 56.7316C163.073 56.9993 162.992 57.1763 162.903 57.2626C162.813 57.349 162.689 57.3709 162.53 57.3284C162.461 57.3099 162.386 57.2456 162.305 57.1355C161.686 56.3519 160.935 55.8418 160.052 55.6052C158.921 55.3021 157.878 55.4386 156.925 56.0147C156.086 56.5255 155.517 57.3404 155.217 58.4593C154.893 59.6675 155.053 60.7291 155.695 61.6442C156.261 62.4579 157.051 63.0006 158.065 63.2723C159.052 63.5366 159.974 63.4747 160.833 63.0866C160.934 63.0402 161.029 63.0289 161.119 63.053C161.243 63.0862 161.313 63.1565 161.329 63.2637C161.344 63.3708 161.315 63.5617 161.242 63.8363L160.563 66.3693C160.504 66.589 160.455 66.7338 160.414 66.8037C160.375 66.8668 160.311 66.9123 160.222 66.94C160.171 66.9632 160.09 66.9781 159.977 66.9847C159.162 67.0167 158.566 67.0189 158.189 66.9914C157.819 66.9658 157.413 66.8939 156.971 66.7756C155.647 66.4207 154.475 65.7573 153.456 64.7855C152.372 63.7521 151.659 62.5753 151.318 61.2552C151 60.0373 151.017 58.7728 151.369 57.4617C151.76 55.9995 152.479 54.7795 153.525 53.8016C154.513 52.8744 155.702 52.2586 157.092 51.9542C158.366 51.6701 159.621 51.6935 160.856 52.0243C161.843 52.2886 162.781 52.7495 163.669 53.4069C163.813 53.5043 163.893 53.5954 163.907 53.6802C163.921 53.7649 163.893 53.9377 163.823 54.1986Z" fill="white"/>
<path d="M168.638 64.4823L167.574 68.4568C167.491 68.7657 167.397 68.9502 167.292 69.0104C167.196 69.0656 166.993 69.0516 166.682 68.9685L164.416 68.3613C164.105 68.2781 163.919 68.1877 163.856 68.09C163.802 67.9873 163.817 67.7815 163.9 67.4726L167.289 54.8179C167.372 54.509 167.461 54.327 167.558 54.2718C167.662 54.2116 167.87 54.2231 168.181 54.3063L173.324 55.6842C174.146 55.9041 174.798 56.1745 175.281 56.4953C175.772 56.8179 176.188 57.253 176.529 57.8006C177.222 58.9132 177.373 60.2005 176.981 61.6627C176.6 63.0836 175.917 64.118 174.93 64.7659C173.923 65.4307 172.592 65.5413 170.936 65.0977L168.638 64.4823ZM169.424 61.5477L170.646 61.8748C171.356 62.0652 171.893 62.0653 172.254 61.8753C172.684 61.6519 172.976 61.2519 173.13 60.6753C173.446 59.4946 172.935 58.725 171.597 58.3664L170.365 58.0365L169.424 61.5477Z" fill="white"/>
<path d="M177.311 71.0649L180.7 58.4103C180.783 58.1014 180.872 57.9193 180.969 57.8641C181.073 57.8039 181.281 57.8154 181.592 57.8986L186.311 59.1628C188.078 59.6359 189.46 60.6721 190.459 62.2713C191.031 63.1748 191.393 64.1547 191.546 65.211C191.689 66.1982 191.638 67.1448 191.396 68.051C191.039 69.3827 190.323 70.5372 189.248 71.5146C188.174 72.4851 186.946 73.0942 185.564 73.3418C184.539 73.5234 183.533 73.4821 182.546 73.2178L177.827 71.9536C177.516 71.8704 177.33 71.78 177.267 71.6823C177.213 71.5796 177.228 71.3738 177.311 71.0649ZM181.625 69.6603L182.463 69.8848C183.153 70.0697 183.761 70.1332 184.287 70.0753C184.812 70.0175 185.313 69.8317 185.789 69.5178C186.676 68.9388 187.265 68.107 187.556 67.0224C187.845 65.9447 187.749 64.9334 187.27 63.9884C187.015 63.4786 186.674 63.0673 186.248 62.7544C185.821 62.4415 185.263 62.1927 184.573 62.0078L183.735 61.7833L181.625 69.6603Z" fill="white"/>
<g clip-path="url(#clip0_2_18971)">
<ellipse cx="115.045" cy="129.436" rx="43.835" ry="36.3204" fill="white"/>
<path d="M158.424 74.3296H67.9094C65.7805 74.3438 63.7435 75.1995 62.2431 76.71C60.7427 78.2204 59.9007 80.2631 59.9007 82.3921V116.04C59.8408 133.898 64.6542 151.433 73.8226 166.758C82.991 182.083 96.1668 194.616 111.931 203.007C112.308 203.219 112.734 203.33 113.167 203.33C113.6 203.33 114.026 203.219 114.403 203.007C130.167 194.616 143.343 182.083 152.511 166.758C161.68 151.433 166.493 133.898 166.433 116.04V82.3921C166.433 80.2631 165.591 78.2204 164.091 76.71C162.59 75.1995 160.553 74.3438 158.424 74.3296V74.3296ZM144.879 117.007L106.663 153.02C105.672 153.948 104.366 154.466 103.008 154.471C102.301 154.475 101.6 154.339 100.945 154.072C100.29 153.804 99.6942 153.41 99.1919 152.912L86.2919 140.012C85.2908 139.005 84.7289 137.643 84.7289 136.223C84.7289 134.803 85.2908 133.44 86.2919 132.433C86.7916 131.93 87.3861 131.53 88.0411 131.257C88.6961 130.984 89.3986 130.843 90.1082 130.843C90.8178 130.843 91.5203 130.984 92.1753 131.257C92.8303 131.53 93.4248 131.93 93.9244 132.433L102.954 141.571L137.354 109.321C138.374 108.323 139.748 107.771 141.174 107.786C142.6 107.801 143.962 108.382 144.96 109.401C145.958 110.421 146.51 111.795 146.495 113.221C146.48 114.647 145.899 116.009 144.879 117.007Z" fill="#F4B455"/>
</g>
<defs>
<clipPath id="clip0_2_18971">
<rect width="129" height="129" fill="white" transform="translate(48.6667 74.3296)"/>
</clipPath>
</defs>
</svg>
