<svg width="217" height="217" viewBox="0 0 217 217" fill="none" xmlns="http://www.w3.org/2000/svg">
<g clip-path="url(#clip0_2_18928)">
<path d="M89.5793 214.689C148.32 225.046 204.335 185.824 214.693 127.084C225.05 68.3431 185.828 12.328 127.087 1.97043C68.3467 -8.38712 12.3316 30.8351 1.97402 89.5757C-8.38353 148.316 30.8387 204.331 89.5793 214.689Z" fill="#77C596"/>
<path d="M69.3506 111.063C69.9235 110.966 70.5121 111.038 71.045 111.269C71.5778 111.501 72.0319 111.882 72.3518 112.367C72.6717 112.852 72.8438 113.42 72.8469 114.001C72.8501 114.582 72.6843 115.151 72.3697 115.639C64.2961 127.921 62.5612 137.973 57.6053 145.83C55.9625 148.922 53.4152 151.438 50.3038 153.043C47.1924 154.648 43.6653 155.265 40.1939 154.811C39.7441 154.749 39.3143 154.586 38.9373 154.333C38.5602 154.08 38.2458 153.744 38.018 153.352C37.7903 152.959 37.6551 152.519 37.6228 152.067C37.5905 151.614 37.662 151.159 37.8318 150.738C39.603 146.287 42.9257 137.513 46.1604 126.693C47.2651 122.99 49.3853 119.669 52.2807 117.109C55.1761 114.548 58.7308 112.85 62.542 112.207L69.3506 111.063Z" fill="#9E673F"/>
<path d="M56.1463 127.592C63.2133 118.488 66.3397 106.094 78.8579 91.6542C79.9084 90.4195 81.0336 89.1848 82.2467 87.9257L76.8152 88.3045L63.4935 89.2219C62.4615 89.2962 61.4366 89.4477 60.4272 89.6751L48.8811 134.084C51.711 132.425 54.181 130.218 56.1463 127.592Z" fill="#9E673F"/>
<path d="M60.4296 89.673L48.884 134.085C46.5854 135.378 44.0474 136.189 41.4249 136.469C38.8024 136.749 36.1503 136.492 33.6305 135.713C31.825 135.179 31.5473 132.889 32.3779 131.128C33.2085 129.368 37.2845 120.724 40.0559 114.777C42.7446 108.988 45.1533 103.749 45.844 102.021C47.09 98.9329 49.0691 96.1951 51.6104 94.0437C54.1517 91.8924 57.1786 90.3923 60.4296 89.673Z" fill="#AF7D58"/>
<path d="M78.8494 63.8162C85.6503 62.7847 92.9604 61.4431 100.298 59.6882C101.184 59.4794 102.071 59.2564 102.957 59.0353C100.793 56.7311 98.7035 54.4261 96.7094 52.1554C92.9039 47.8376 89.4426 43.6354 86.4018 39.8006C85.9438 39.2298 85.51 38.6657 85.0727 38.1136C82.7701 35.1804 79.3585 30.5044 76.7496 26.8847L70.4152 51.2504C71.9921 53.8246 73.7997 56.3969 75.7155 59.1721C76.7377 60.6498 77.7896 62.1941 78.8494 63.8162Z" fill="#9E673F"/>
<path d="M75.2552 24.8054C74.9603 24.3879 74.5746 24.0427 74.1271 23.7958C73.6795 23.5489 73.1818 23.4066 72.6714 23.3797C72.161 23.3529 71.6511 23.4421 71.1802 23.6407C70.7092 23.8393 70.2894 24.1421 69.9523 24.5263C67.4123 27.4744 65.8333 31.128 65.4265 34.998C65.0197 38.8681 65.8046 42.7701 67.676 46.1819C68.4858 47.9254 69.4004 49.6181 70.4149 51.2509L76.7497 26.8853C76.2115 26.1393 75.7079 25.4367 75.2552 24.8054Z" fill="#AF7D58"/>
<path d="M66.4115 65.4482C61.3068 66.0217 52.5712 66.6226 47.5305 66.9463C47.012 66.9765 46.5072 67.1241 46.0541 67.3777C45.601 67.6313 45.2113 67.9845 44.9145 68.4106C44.6176 68.8367 44.4214 69.3246 44.3405 69.8376C44.2596 70.3505 44.2962 70.8752 44.4475 71.3719C45.6166 75.0948 47.8959 78.3714 50.9797 80.7625C54.0635 83.1536 57.8045 84.5449 61.7013 84.7499L61.7076 84.7456L66.7338 65.4121L66.4115 65.4482Z" fill="#AF7D58"/>
<path d="M86.8739 78.6243C84.648 73.4579 81.9624 68.5021 78.8494 63.8164C78.7544 63.8308 78.655 63.8483 78.5599 63.8627C74.3839 64.4931 70.4158 64.9997 66.7341 65.4102L61.7078 84.7436C69.1866 85.6983 77.0439 84.4117 87.0445 84.6189C87.7571 84.6338 88.4919 84.665 89.2274 84.6953C88.4845 82.543 87.7042 80.5192 86.8867 78.6238L86.8739 78.6243Z" fill="#9E673F"/>
<path d="M147.506 209.001C129.089 216.194 109.043 218.163 89.5792 214.689C87.0532 214.243 84.578 213.704 82.1477 213.104C81.2259 206.088 79.571 199.73 75.3319 196.172C66.7799 188.595 60.9203 178.446 58.6354 167.251C58.2389 165.519 57.9533 163.763 57.7803 161.994C57.7803 161.994 58.8438 162.181 60.7442 162.482C71.9862 164.225 112.328 170.995 133.857 179.898C135.808 180.687 137.588 181.481 139.156 182.306C145.119 185.413 148.512 188.719 147.503 192.105C146.066 197.646 146.067 203.461 147.506 209.001Z" fill="#AF7D58"/>
<path d="M133.866 179.887C132.037 180.791 129.943 181.005 127.968 180.492L63.4699 163.725C62.493 163.474 61.5695 163.049 60.744 162.47C58.8386 162.165 57.7755 162.007 57.7755 162.007C57.9457 163.769 58.2295 165.518 58.6251 167.243C59.517 167.729 60.4654 168.103 61.4488 168.358L127.481 185.525C129.539 186.061 131.703 186.047 133.754 185.483C135.805 184.919 137.672 183.825 139.166 182.311C137.573 181.492 135.801 180.675 133.866 179.887Z" fill="#9E673F"/>
<path d="M168.847 39.4233C169.384 37.3593 169.079 35.1667 167.998 33.3278C166.918 31.4889 165.152 30.1544 163.088 29.6177L97.6858 12.6152C96.6637 12.3495 95.5994 12.2877 94.5534 12.4334C93.5075 12.579 92.5005 12.9292 91.5899 13.464C90.6794 13.9989 89.8831 14.7078 89.2465 15.5504C88.6099 16.3929 88.1455 17.3526 87.8798 18.3747L79.7231 49.7516L54.3373 147.402C53.7696 149.586 54.0928 151.907 55.2358 153.853C56.3788 155.799 58.248 157.211 60.4322 157.779L124.929 174.547C126.993 175.082 129.183 174.824 131.065 173.822C132.948 172.82 134.386 171.148 135.094 169.137C135.137 169.024 135.176 168.902 135.214 168.781C135.241 168.705 135.263 168.621 135.285 168.537L160.693 70.802L160.691 70.8017L168.847 39.4233Z" fill="#F44F6C"/>
<path d="M164.622 25.0258L98.5818 7.85751C95.4635 7.04701 92.1508 7.50833 89.3725 9.14C86.5943 10.7717 84.5778 13.4401 83.7668 16.5583L49.7005 147.6C48.8903 150.718 49.3518 154.03 50.9834 156.808C52.615 159.586 55.2832 161.603 58.4011 162.414L124.441 179.582C127.559 180.392 130.872 179.931 133.65 178.299C136.428 176.667 138.444 173.999 139.255 170.881L173.323 39.8397C173.725 38.2957 173.818 36.6877 173.598 35.1075C173.378 33.5274 172.849 32.0061 172.041 30.6304C171.233 29.2548 170.162 28.0518 168.889 27.0902C167.616 26.1285 166.166 25.4271 164.622 25.0258ZM164.783 55.0573L151.845 104.826L135.303 168.455C134.735 170.639 133.322 172.507 131.376 173.65C129.43 174.793 127.11 175.117 124.926 174.55L81.1139 163.161L60.4297 157.784C59.3481 157.503 58.3325 157.011 57.4409 156.338C56.5492 155.664 55.799 154.821 55.233 153.858C54.667 152.894 54.2964 151.828 54.1423 150.721C53.9881 149.615 54.0535 148.488 54.3347 147.407L71.9304 79.7229L84.3288 32.0292L87.8386 18.5285C88.1042 17.5065 88.5686 16.5468 89.2052 15.7043C89.8417 14.8618 90.638 14.1529 91.5486 13.6181C92.4591 13.0833 93.466 12.7331 94.5119 12.5875C95.5578 12.4418 96.6221 12.5037 97.6441 12.7694L163.048 29.7728C164.07 30.0384 165.029 30.5028 165.872 31.1394C166.715 31.7759 167.423 32.5722 167.958 33.4828C168.493 34.3933 168.843 35.4003 168.989 36.4461C169.134 37.492 169.073 38.5563 168.807 39.5783L164.783 55.0573Z" fill="#0E173F"/>
<path d="M109.96 19.9601L103.034 18.1598C102.177 17.9369 101.301 18.4513 101.078 19.3087C100.855 20.1661 101.37 21.0419 102.227 21.2648L109.152 23.0652C110.01 23.2881 110.886 22.7737 111.109 21.9162C111.331 21.0588 110.817 20.183 109.96 19.9601Z" fill="#F4888E"/>
<path d="M98.0711 16.8676L96.7446 16.5228C95.8872 16.2999 95.0115 16.8143 94.7886 17.6717C94.5657 18.5291 95.0801 19.4049 95.9375 19.6278L97.264 19.9726C98.1214 20.1955 98.9972 19.6811 99.2201 18.8237C99.4429 17.9662 98.9286 17.0905 98.0711 16.8676Z" fill="#F4888E"/>
<path d="M159.691 36.1853C160.602 36.346 161.471 35.7376 161.632 34.8263C161.793 33.9151 161.184 33.0462 160.273 32.8855C159.362 32.7249 158.493 33.3333 158.332 34.2445C158.171 35.1557 158.78 36.0247 159.691 36.1853Z" fill="#F4888E"/>
<path d="M148.184 33.1942C149.095 33.3548 149.964 32.7464 150.125 31.8352C150.285 30.924 149.677 30.055 148.766 29.8944C147.854 29.7337 146.985 30.3421 146.825 31.2534C146.664 32.1646 147.273 33.0335 148.184 33.1942Z" fill="#F4888E"/>
<path d="M153.937 34.6898C154.849 34.8504 155.718 34.242 155.878 33.3308C156.039 32.4196 155.43 31.5507 154.519 31.39C153.608 31.2293 152.739 31.8377 152.578 32.749C152.418 33.6602 153.026 34.5291 153.937 34.6898Z" fill="#F4888E"/>
<path d="M41.0415 125.101L38.6657 130.964C38.4556 131.48 38.0591 131.898 37.5549 132.135C37.0508 132.372 36.4759 132.411 35.9445 132.244L32.3787 131.13C34.211 127.251 37.2853 120.725 40.0567 114.778C41.0408 116.292 41.6443 118.021 41.8157 119.819C41.9872 121.616 41.7216 123.429 41.0415 125.101Z" fill="#C6946D"/>
<path d="M147.494 192.104L143.357 187.857C129.678 200.128 113.383 204.11 105.757 196.582C97.5695 188.527 103.283 171.104 116.629 155.907C120.572 151.434 124.898 147.313 129.558 143.593C136.892 137.893 142.605 130.371 146.127 121.776C152.414 105.928 149.474 93.9061 153.127 83.6332C154.287 79.3805 156.766 75.6055 160.208 72.8514C163.649 70.0972 167.876 68.5059 172.279 68.3064C172.73 68.2914 173.178 68.377 173.591 68.5571C174.005 68.7371 174.373 69.007 174.669 69.3472C174.964 69.6873 175.181 70.0891 175.302 70.5234C175.423 70.9577 175.446 71.4135 175.368 71.8576C175.206 72.8342 175.063 73.6965 175.025 73.914C175.016 74.0015 174.999 74.0941 174.983 74.1808C174.322 78.4814 173.428 84.9581 172.662 92.7767C172.626 93.1275 172.589 93.4834 172.558 93.8433C172.488 94.5106 172.425 95.1798 172.367 95.8569C170.983 110.28 170.671 124.786 171.436 139.255C172.137 150.742 154.195 177.088 147.494 192.104Z" fill="#AF7D58"/>
<path d="M172.665 92.776C170.98 91.76 169.608 90.2994 168.699 88.5546C167.789 86.8098 167.378 84.8482 167.51 82.885L167.969 76.0597C168.005 75.5034 168.249 74.9811 168.653 74.5971C169.057 74.2131 169.591 73.9957 170.148 73.9884L175.028 73.9139C175.019 74.0015 175.002 74.0941 174.986 74.1808C174.326 78.4808 173.431 84.9575 172.665 92.776Z" fill="#C6946D"/>
<path d="M41.9946 36.6609L39.757 51.2473C38.8805 56.9608 34.7567 61.6406 29.1988 63.2288L27.1093 63.8259L29.5485 64.5738C34.9382 66.2266 38.9201 70.7988 39.817 76.3643L42.2698 91.5865L44.5494 76.4768C45.4011 70.8319 49.4247 66.1807 54.8882 64.5254L57.7029 63.6726L55.2099 63.0198C49.5547 61.5389 45.3019 56.8669 44.3576 51.0979L41.9946 36.6609Z" fill="#FFCC26"/>
<g clip-path="url(#clip1_2_18928)">
<path d="M114.423 106.543L114.149 107.578C114.016 108.082 114.319 108.603 114.823 108.736L130.419 112.857C130.923 112.99 131.443 112.688 131.577 112.183L132.166 109.954C135.972 95.5523 127.059 80.7578 112.497 77.7191C104.425 76.0261 96.3622 78.3258 90.444 83.3648C89.9859 83.7549 90.4023 84.4898 90.9643 84.2975C94.2154 83.2254 97.794 83.0635 101.338 84C111.167 86.5691 117.025 96.6941 114.423 106.543Z" fill="white"/>
<path d="M81.8244 97.9281L81.5648 98.9103C81.414 99.481 81.7558 100.068 82.3265 100.219L97.6967 104.281C98.2674 104.432 98.8547 104.09 99.0056 103.519C100.117 99.3117 104.417 96.7985 108.598 97.9033C109.328 98.0963 110.017 98.3918 110.631 98.753C111.084 99.0288 111.632 98.6199 111.512 98.1055C110.204 92.8466 106.157 88.4401 100.569 86.9635C92.4061 84.8063 83.992 89.7253 81.8244 97.9281Z" fill="white"/>
</g>
<path d="M163.173 113.505L159.626 136.628C158.236 145.686 151.699 153.104 142.888 155.622L139.575 156.569L143.442 157.754C151.986 160.375 158.299 167.623 159.721 176.446L163.609 200.577L167.223 176.624C168.573 167.675 174.952 160.302 183.613 157.678L188.075 156.326L184.123 155.291C175.158 152.943 168.416 145.537 166.919 136.391L163.173 113.505Z" fill="#FFCC26"/>
</g>
<defs>
<clipPath id="clip0_2_18928">
<rect width="216" height="216" fill="white" transform="translate(0.333252 0.32959)"/>
</clipPath>
<clipPath id="clip1_2_18928">
<rect width="51.7434" height="29.4979" fill="white" transform="translate(88.8276 71.4267) rotate(14.8028)"/>
</clipPath>
</defs>
</svg>
