<svg width="225" height="223" viewBox="0 0 225 223" fill="none" xmlns="http://www.w3.org/2000/svg">
<circle cx="111" cy="114" r="108" fill="#FED4D7"/>
<g clip-path="url(#clip0_2_18960)">
<path d="M1.24264 155.072L100.743 55.5722L92.2574 47.0869L-7.24264 146.587L1.24264 155.072Z" fill="#4BAE72"/>
</g>
<path d="M96.5 51.3296L100.743 47.0869C98.3995 44.7438 94.6005 44.7438 92.2574 47.0869L96.5 51.3296ZM135 89.8296L130.757 94.0722C133.101 96.4154 136.899 96.4154 139.243 94.0722L135 89.8296ZM224.5 6.32959C224.5 3.01588 221.814 0.32959 218.5 0.32959H164.5C161.186 0.32959 158.5 3.01588 158.5 6.32959C158.5 9.6433 161.186 12.3296 164.5 12.3296H212.5V60.3296C212.5 63.6433 215.186 66.3296 218.5 66.3296C221.814 66.3296 224.5 63.6433 224.5 60.3296V6.32959ZM26.7426 129.572L100.743 55.5722L92.2574 47.0869L18.2574 121.087L26.7426 129.572ZM92.2574 55.5722L130.757 94.0722L139.243 85.587L100.743 47.0869L92.2574 55.5722ZM139.243 94.0722L222.743 10.5722L214.257 2.08695L130.757 85.587L139.243 94.0722Z" fill="#4BAE72"/>
<rect y="159.33" width="222" height="46" rx="23" fill="#FFEDB3"/>
<path d="M25.3102 167.628L21.4654 175.424L12.8633 176.678C11.3207 176.902 10.7025 178.803 11.8211 179.893L18.0446 185.957L16.5726 194.524C16.3077 196.073 17.9386 197.232 19.3046 196.508L27 192.463L34.6954 196.508C36.0614 197.227 37.6923 196.073 37.4274 194.524L35.9554 185.957L42.1789 179.893C43.2975 178.803 42.6793 176.902 41.1367 176.678L32.5346 175.424L28.6898 167.628C28.0009 166.239 26.005 166.221 25.3102 167.628Z" fill="#FFC300"/>
<path d="M67.3102 167.628L63.4654 175.424L54.8633 176.678C53.3207 176.902 52.7025 178.803 53.8211 179.893L60.0446 185.957L58.5726 194.524C58.3077 196.073 59.9386 197.232 61.3046 196.508L69 192.463L76.6954 196.508C78.0614 197.227 79.6923 196.073 79.4274 194.524L77.9554 185.957L84.1789 179.893C85.2975 178.803 84.6793 176.902 83.1367 176.678L74.5346 175.424L70.6898 167.628C70.0009 166.239 68.005 166.221 67.3102 167.628Z" fill="#FFC300"/>
<path d="M109.31 167.628L105.465 175.424L96.8633 176.678C95.3207 176.902 94.7025 178.803 95.8211 179.893L102.045 185.957L100.573 194.524C100.308 196.073 101.939 197.232 103.305 196.508L111 192.463L118.695 196.508C120.061 197.227 121.692 196.073 121.427 194.524L119.955 185.957L126.179 179.893C127.298 178.803 126.679 176.902 125.137 176.678L116.535 175.424L112.69 167.628C112.001 166.239 110.005 166.221 109.31 167.628Z" fill="#FFC300"/>
<path d="M151.31 167.628L147.465 175.424L138.863 176.678C137.321 176.902 136.702 178.803 137.821 179.893L144.045 185.957L142.573 194.524C142.308 196.073 143.939 197.232 145.305 196.508L153 192.463L160.695 196.508C162.061 197.227 163.692 196.073 163.427 194.524L161.955 185.957L168.179 179.893C169.298 178.803 168.679 176.902 167.137 176.678L158.535 175.424L154.69 167.628C154.001 166.239 152.005 166.221 151.31 167.628Z" fill="#FFC300"/>
<path d="M193.31 167.628L189.465 175.424L180.863 176.678C179.321 176.902 178.702 178.803 179.821 179.893L186.045 185.957L184.573 194.524C184.308 196.073 185.939 197.232 187.305 196.508L195 192.463L202.695 196.508C204.061 197.227 205.692 196.073 205.427 194.524L203.955 185.957L210.179 179.893C211.298 178.803 210.679 176.902 209.137 176.678L200.535 175.424L196.69 167.628C196.001 166.239 194.005 166.221 193.31 167.628Z" fill="#FFC300"/>
<defs>
<clipPath id="clip0_2_18960">
<rect x="3" y="6.32959" width="216" height="216" rx="108" fill="white"/>
</clipPath>
</defs>
</svg>
